<?xml version="1.0" encoding="utf-8"?>
<!-- Generator: Adobe Illustrator 19.2.1, SVG Export Plug-In . SVG Version: 6.00 Build 0)  -->
<!DOCTYPE svg PUBLIC "-//W3C//DTD SVG 1.1//EN" "http://www.w3.org/Graphics/SVG/1.1/DTD/svg11.dtd">
<svg version="1.1" id="Layer_1" xmlns="http://www.w3.org/2000/svg" xmlns:xlink="http://www.w3.org/1999/xlink" x="0px" y="0px"
	 viewBox="0 0 139 90" style="enable-background:new 0 0 139 90;" xml:space="preserve">
<style type="text/css">
	.st0{fill:#FFFFFF;}
</style>
<path class="st0" d="M5.2,31.6H1V6.3h11.3c3.7,0,7.5,2.2,7.5,7.2c0,4.8-2.8,7.6-7.5,7.6H5.2V31.6z M5.2,16.8h7.1
	c2.9,0,3.3-1.7,3.3-3.4c0-1.9-1.3-3-3.3-3H5.2V16.8z"/>
<path class="st0" d="M5.2,31.6H1V6.3h11.3c3.7,0,7.5,2.2,7.5,7.2c0,4.8-2.8,7.6-7.5,7.6H5.2V31.6z M5.2,16.8h7.1
	c2.9,0,3.3-1.7,3.3-3.4c0-1.9-1.3-3-3.3-3H5.2V16.8z"/>
<path class="st0" d="M5.2,31.6H1V6.3h11.3c3.7,0,7.5,2.2,7.5,7.2c0,4.8-2.8,7.6-7.5,7.6H5.2V31.6z M5.2,16.8h7.1
	c2.9,0,3.3-1.7,3.3-3.4c0-1.9-1.3-3-3.3-3H5.2V16.8z"/>
<path class="st0" d="M5.2,31.6H1V6.3h11.3c3.7,0,7.5,2.2,7.5,7.2c0,4.8-2.8,7.6-7.5,7.6H5.2V31.6z M5.2,16.8h7.1
	c2.9,0,3.3-1.7,3.3-3.4c0-1.9-1.3-3-3.3-3H5.2V16.8z"/>
<rect x="36.4" y="41.9" class="st0" width="3.4" height="25.3"/>
<rect x="26.2" y="72.1" class="st0" width="23.7" height="3.2"/>
<polygon class="st0" points="104.9,31.6 86.7,31.6 86.7,6.3 104.3,6.3 104.3,10.5 90.9,10.5 90.9,16.3 99.3,16.3 99.3,20.5 
	90.9,20.5 90.9,27.4 104.9,27.4 "/>
<polygon class="st0" points="104.9,31.6 86.7,31.6 86.7,6.3 104.3,6.3 104.3,10.5 90.9,10.5 90.9,16.3 99.3,16.3 99.3,20.5 
	90.9,20.5 90.9,27.4 104.9,27.4 "/>
<polygon class="st0" points="30.2,67.2 13.8,67.2 13.8,41.9 18,41.9 18,63.1 30.2,63.1 "/>
<path class="st0" d="M87.6,67.8c-7.4,0-9.7-3.4-9.7-10.2V41.9h4.2v15.7c0,2.8-0.6,6,5.5,6c6.2,0,5.5-3.2,5.5-6V41.9h4.2v15.7
	C97.4,64.3,95,67.8,87.6,67.8"/>
<path class="st0" d="M87.6,67.8c-7.4,0-9.7-3.4-9.7-10.2V41.9h4.2v15.7c0,2.8-0.6,6,5.5,6c6.2,0,5.5-3.2,5.5-6V41.9h4.2v15.7
	C97.4,64.3,95,67.8,87.6,67.8"/>
<rect x="105.1" y="41.9" class="st0" width="4.2" height="25.3"/>
<rect x="105.1" y="41.9" class="st0" width="4.2" height="25.3"/>
<path class="st0" d="M125.4,67.2H117V41.9h8.4c8.5,0,12.4,6.5,12.4,12.5C137.8,61.7,132.5,67.2,125.4,67.2 M121.2,63.1h4.2
	c6,0,8.3-5.3,8.3-8.6c0-5-3.3-8.4-8.3-8.4h-4.2V63.1z"/>
<path class="st0" d="M125.4,67.2H117V41.9h8.4c8.5,0,12.4,6.5,12.4,12.5C137.8,61.7,132.5,67.2,125.4,67.2 M121.2,63.1h4.2
	c6,0,8.3-5.3,8.3-8.6c0-5-3.3-8.4-8.3-8.4h-4.2V63.1z"/>
<polygon class="st0" points="19.7,81.4 20.5,81.4 18.7,87.2 18.1,87.2 16.8,82.7 15.5,87.2 14.9,87.2 13.1,81.4 13.9,81.4 
	15.2,85.9 16.5,81.4 17.2,81.4 18.4,85.9 "/>
<path class="st0" d="M22.1,82.5c-0.2,0-0.4-0.2-0.4-0.4c0-0.2,0.2-0.4,0.4-0.4c0.2,0,0.4,0.2,0.4,0.4C22.5,82.3,22.4,82.5,22.1,82.5
	 M22.4,87.2h-0.7v-4h0.7V87.2z"/>
<path class="st0" d="M25.1,83.2v0.6c0.4-0.5,0.7-0.7,1.2-0.7c0.4,0,0.7,0.1,0.9,0.3c0.3,0.3,0.3,0.5,0.3,1.1v2.7h-0.7v-2.5
	c0-0.7-0.2-1-0.8-1c-0.6,0-1,0.5-1,1.1v2.4h-0.7v-4H25.1z"/>
<path class="st0" d="M30,85.4c0.1,0.8,0.6,1.3,1.3,1.3c0.5,0,1-0.3,1.2-0.7l0.6,0.2c-0.3,0.7-1,1.1-1.8,1.1c-1.2,0-2-0.9-2-2.1
	c0-1.2,0.8-2.1,2-2.1c1.2,0,2,0.9,2,2c0,0.1,0,0.1,0,0.3H30z M31.3,83.7c-0.4,0-0.8,0.2-1.1,0.6C30.1,84.5,30,84.6,30,85h2.6
	C32.5,84.2,32,83.7,31.3,83.7"/>
<path class="st0" d="M43.2,85.7c0,0.7,0.4,1,1,1c0.7,0,1.1-0.4,1.1-1c0-0.5-0.3-0.7-1.2-1c-0.7-0.2-0.9-0.3-1.2-0.6
	c-0.3-0.3-0.5-0.7-0.5-1.1c0-1,0.7-1.6,1.7-1.6c1,0,1.7,0.6,1.7,1.7h-0.7c0-0.7-0.4-1-1-1c-0.6,0-1,0.4-1,0.9c0,0.3,0.1,0.5,0.3,0.7
	c0.2,0.1,0.3,0.2,0.9,0.4c0.6,0.2,0.9,0.4,1.1,0.6c0.3,0.3,0.4,0.6,0.4,1c0,1-0.7,1.7-1.8,1.7c-1.1,0-1.8-0.6-1.8-1.5v-0.1H43.2z"/>
<path class="st0" d="M48.5,83.2V84c0.4-0.6,0.8-0.8,1.5-0.8c1.1,0,1.9,0.8,1.9,2.1c0,1.3-0.8,2.1-1.9,2.1c-0.6,0-1.1-0.2-1.5-0.7
	v2.5h-0.7v-5.9H48.5z M49.8,83.7c-0.8,0-1.3,0.6-1.3,1.6c0,0.9,0.5,1.5,1.3,1.5c0.8,0,1.3-0.6,1.3-1.6
	C51.2,84.3,50.6,83.7,49.8,83.7"/>
<path class="st0" d="M53.9,82.5c-0.2,0-0.4-0.2-0.4-0.4c0-0.2,0.2-0.4,0.4-0.4c0.2,0,0.4,0.2,0.4,0.4C54.3,82.3,54.1,82.5,53.9,82.5
	 M54.2,87.2h-0.7v-4h0.7V87.2z"/>
<path class="st0" d="M56.9,83.2v0.7c0.2-0.5,0.6-0.8,1.1-0.8h0.2v0.7H58c-0.4,0-0.7,0.2-0.9,0.5c-0.2,0.3-0.2,0.5-0.2,0.9v2h-0.7v-4
	H56.9z"/>
<path class="st0" d="M60,82.5c-0.2,0-0.4-0.2-0.4-0.4c0-0.2,0.2-0.4,0.4-0.4c0.2,0,0.4,0.2,0.4,0.4C60.4,82.3,60.3,82.5,60,82.5
	 M60.4,87.2h-0.7v-4h0.7V87.2z"/>
<path class="st0" d="M63.1,86.4c0,0.2,0.1,0.2,0.3,0.2h0.3v0.6h-0.6c-0.5,0-0.7-0.2-0.7-0.6v-2.8h-0.5v-0.6h0.5V82h0.7v1.3h0.6v0.6
	h-0.6V86.4z"/>
<path class="st0" d="M67.2,84.3L67.2,84.3c0-0.4-0.3-0.6-0.8-0.6c-0.4,0-0.7,0.2-0.7,0.6c0,0.4,0.2,0.5,0.9,0.7
	c0.5,0.1,0.8,0.3,1,0.5c0.2,0.2,0.3,0.5,0.3,0.8c0,0.7-0.6,1.1-1.4,1.1c-0.9,0-1.4-0.4-1.5-1.2h0.7c0,0.4,0.3,0.7,0.8,0.7
	c0.5,0,0.7-0.2,0.7-0.6c0-0.3-0.2-0.5-0.9-0.7c-0.9-0.2-1.3-0.6-1.3-1.2c0-0.7,0.6-1.2,1.4-1.2c0.9,0,1.4,0.4,1.4,1.2H67.2z"/>
<polygon class="st0" points="37.9,87.2 38.5,87.2 38.5,84.8 40.9,84.8 40.9,84.1 38.5,84.1 38.5,81.8 37.9,81.8 37.9,84.1 
	35.5,84.1 35.5,84.8 37.9,84.8 "/>
<path class="st0" d="M80.4,29.5L80.4,29.5L80.4,29.5C80.4,29.5,80.4,29.5,80.4,29.5L80.4,29.5L80.4,29.5L74,20.9
	c2.2-0.6,4.8-2.6,4.8-7.3c0-5.4-4.2-7.4-8.1-7.4H59.2v25.3h4.2V21.3h5.5L77,32.1l0,0c0.4,0.6,1.5,0.4,2.5-0.3
	C80.4,31.1,80.9,30.1,80.4,29.5z M70.8,17.1h-7.4v-6.7h7.4c2.6,0,3.9,1.1,3.9,3.2C74.6,15.9,73.3,17.1,70.8,17.1z"/>
<g>
	<g>
		<path class="st0" d="M50.8,1.8L50.8,1.8c0-0.6-0.7-1-1.7-1c-0.9,0-1.6,0.5-1.6,1h0l1.2,21.6c0,6.9-2.8,10.2-10.7,10.2
			c-7.8,0-10.7-3.3-10.7-10.2l1.2-21.6h0c0-0.6-0.7-1-1.7-1c-0.9,0-1.6,0.5-1.6,1h0l-1.2,21.7c0,9,3.9,13.4,14,13.4
			c10.1,0,14-4.4,14-13.5L50.8,1.8z"/>
	</g>
</g>
<path class="st0" d="M71.8,67.5L71.8,67.5l-3.1-4.1c1.6-2.3,2.5-5.3,2.5-8.8c0-7.5-3.9-13.2-11.7-13.2c-7.7,0-11.7,5.7-11.7,13.2
	s3.9,13.2,11.7,13.2c2.4,0,4.4-0.5,6-1.5l2.8,3.7l0,0c0,0,0,0,0,0c0.4,0.6,1.5,0.5,2.5-0.3C71.8,69.1,72.2,68,71.8,67.5z M59.5,63.7
	c-5.3,0-7.6-4-7.6-9.1s2.3-9.1,7.6-9.1c5.3,0,7.6,4,7.6,9.1c0,2-0.3,3.8-1.1,5.3l-3.4-4.6l-3.4,2.6L63,63
	C62,63.4,60.9,63.7,59.5,63.7z"/>
</svg>
